<svg xmlns="http://www.w3.org/2000/svg" xmlns:xlink="http://www.w3.org/1999/xlink" width="120" zoomAndPan="magnify" viewBox="0 0 90 30.000001" height="40" preserveAspectRatio="xMidYMid meet" version="1.0"><defs><g/><clipPath id="07fae3ac66"><path d="M 2.804688 5.574219 L 22.324219 5.574219 L 22.324219 25.078125 L 2.804688 25.078125 Z M 2.804688 5.574219 " clip-rule="nonzero"/></clipPath><clipPath id="7aa7a1f08b"><path d="M 17 5 L 20 5 L 20 9 L 17 9 Z M 17 5 " clip-rule="nonzero"/></clipPath><clipPath id="66c2189ffa"><path d="M 9.417969 4.675781 L 24.988281 5.875 L 23.789062 21.445312 L 8.21875 20.242188 Z M 9.417969 4.675781 " clip-rule="nonzero"/></clipPath><clipPath id="ec985ac989"><path d="M 9.417969 4.675781 L 24.988281 5.875 L 23.789062 21.445312 L 8.21875 20.242188 Z M 9.417969 4.675781 " clip-rule="nonzero"/></clipPath><clipPath id="bb2d8307af"><path d="M 15 8 L 19 8 L 19 11 L 15 11 Z M 15 8 " clip-rule="nonzero"/></clipPath><clipPath id="b6fae7d98c"><path d="M 9.417969 4.675781 L 24.988281 5.875 L 23.789062 21.445312 L 8.21875 20.242188 Z M 9.417969 4.675781 " clip-rule="nonzero"/></clipPath><clipPath id="06f492638d"><path d="M 9.417969 4.675781 L 24.988281 5.875 L 23.789062 21.445312 L 8.21875 20.242188 Z M 9.417969 4.675781 " clip-rule="nonzero"/></clipPath><clipPath id="fa67410406"><path d="M 20 5 L 23 5 L 23 8 L 20 8 Z M 20 5 " clip-rule="nonzero"/></clipPath><clipPath id="2193d22231"><path d="M 9.417969 4.675781 L 24.988281 5.875 L 23.789062 21.445312 L 8.21875 20.242188 Z M 9.417969 4.675781 " clip-rule="nonzero"/></clipPath><clipPath id="6eaac7ab9c"><path d="M 9.417969 4.675781 L 24.988281 5.875 L 23.789062 21.445312 L 8.21875 20.242188 Z M 9.417969 4.675781 " clip-rule="nonzero"/></clipPath><clipPath id="6ab7c1b549"><path d="M 22 8 L 25 8 L 25 11 L 22 11 Z M 22 8 " clip-rule="nonzero"/></clipPath><clipPath id="2a12da5988"><path d="M 9.417969 4.675781 L 24.988281 5.875 L 23.789062 21.445312 L 8.21875 20.242188 Z M 9.417969 4.675781 " clip-rule="nonzero"/></clipPath><clipPath id="a4e0b3a809"><path d="M 9.417969 4.675781 L 24.988281 5.875 L 23.789062 21.445312 L 8.21875 20.242188 Z M 9.417969 4.675781 " clip-rule="nonzero"/></clipPath><clipPath id="c90e491c2e"><path d="M 20 11 L 24 11 L 24 15 L 20 15 Z M 20 11 " clip-rule="nonzero"/></clipPath><clipPath id="2360446359"><path d="M 9.417969 4.675781 L 24.988281 5.875 L 23.789062 21.445312 L 8.21875 20.242188 Z M 9.417969 4.675781 " clip-rule="nonzero"/></clipPath><clipPath id="522eacae07"><path d="M 9.417969 4.675781 L 24.988281 5.875 L 23.789062 21.445312 L 8.21875 20.242188 Z M 9.417969 4.675781 " clip-rule="nonzero"/></clipPath><clipPath id="3731ef0068"><path d="M 8 11 L 18 11 L 18 21 L 8 21 Z M 8 11 " clip-rule="nonzero"/></clipPath><clipPath id="8736f9769e"><path d="M 9.417969 4.675781 L 24.988281 5.875 L 23.789062 21.445312 L 8.21875 20.242188 Z M 9.417969 4.675781 " clip-rule="nonzero"/></clipPath><clipPath id="6485009ac8"><path d="M 9.417969 4.675781 L 24.988281 5.875 L 23.789062 21.445312 L 8.21875 20.242188 Z M 9.417969 4.675781 " clip-rule="nonzero"/></clipPath><clipPath id="a7f89c8391"><path d="M 17 8 L 22 8 L 22 13 L 17 13 Z M 17 8 " clip-rule="nonzero"/></clipPath><clipPath id="82b788d52a"><path d="M 9.417969 4.675781 L 24.988281 5.875 L 23.789062 21.445312 L 8.21875 20.242188 Z M 9.417969 4.675781 " clip-rule="nonzero"/></clipPath><clipPath id="64df85d25a"><path d="M 9.417969 4.675781 L 24.988281 5.875 L 23.789062 21.445312 L 8.21875 20.242188 Z M 9.417969 4.675781 " clip-rule="nonzero"/></clipPath></defs><g clip-path="url(#07fae3ac66)"><path fill="#012840" d="M 22.324219 17.734375 C 22.324219 17.734375 22.273438 17.886719 22.183594 18.167969 C 22.144531 18.304688 22.066406 18.492188 21.984375 18.703125 C 21.90625 18.921875 21.789062 19.152344 21.667969 19.414062 C 21.410156 19.929688 21.0625 20.542969 20.574219 21.175781 C 20.085938 21.8125 19.457031 22.464844 18.675781 23.054688 C 18.578125 23.128906 18.480469 23.203125 18.378906 23.277344 C 18.277344 23.351562 18.171875 23.414062 18.066406 23.484375 C 18.011719 23.519531 17.957031 23.554688 17.902344 23.589844 C 17.851562 23.625 17.796875 23.660156 17.738281 23.691406 C 17.628906 23.753906 17.511719 23.816406 17.398438 23.878906 C 17.339844 23.910156 17.285156 23.945312 17.226562 23.976562 C 17.167969 24.003906 17.105469 24.03125 17.046875 24.0625 C 16.925781 24.117188 16.804688 24.175781 16.683594 24.234375 C 16.558594 24.289062 16.429688 24.335938 16.304688 24.386719 C 16.175781 24.4375 16.050781 24.492188 15.917969 24.53125 C 15.785156 24.574219 15.652344 24.617188 15.515625 24.660156 L 15.417969 24.691406 L 15.402344 24.695312 L 15.382812 24.703125 L 15.359375 24.707031 L 15.308594 24.722656 C 15.242188 24.738281 15.175781 24.753906 15.109375 24.773438 C 15.042969 24.789062 14.976562 24.808594 14.910156 24.824219 C 14.839844 24.839844 14.765625 24.855469 14.695312 24.867188 C 14.550781 24.898438 14.40625 24.929688 14.265625 24.949219 C 13.691406 25.042969 13.097656 25.089844 12.492188 25.074219 C 11.289062 25.046875 10.050781 24.789062 8.886719 24.296875 C 7.722656 23.804688 6.640625 23.074219 5.730469 22.160156 C 4.824219 21.25 4.097656 20.160156 3.605469 18.988281 C 3.546875 18.84375 3.484375 18.699219 3.433594 18.546875 L 3.351562 18.324219 C 3.339844 18.289062 3.324219 18.25 3.3125 18.214844 L 3.28125 18.101562 C 3.257812 18.027344 3.234375 17.949219 3.210938 17.875 L 3.175781 17.761719 L 3.167969 17.730469 L 3.160156 17.703125 L 3.148438 17.648438 C 3.109375 17.496094 3.070312 17.351562 3.039062 17.199219 C 3.007812 17.046875 2.976562 16.890625 2.949219 16.738281 C 2.925781 16.585938 2.902344 16.433594 2.882812 16.285156 C 2.863281 16.132812 2.851562 15.980469 2.835938 15.828125 C 2.824219 15.675781 2.820312 15.523438 2.8125 15.375 C 2.769531 14.167969 2.953125 13 3.289062 11.957031 C 3.453125 11.429688 3.664062 10.9375 3.898438 10.480469 C 4.132812 10.019531 4.386719 9.59375 4.667969 9.207031 C 4.945312 8.820312 5.230469 8.46875 5.53125 8.15625 C 5.570312 8.117188 5.605469 8.078125 5.640625 8.039062 C 5.679688 8 5.71875 7.964844 5.753906 7.925781 C 5.832031 7.855469 5.90625 7.78125 5.976562 7.710938 C 6.054688 7.644531 6.128906 7.574219 6.203125 7.511719 C 6.277344 7.445312 6.351562 7.378906 6.425781 7.320312 C 7.019531 6.835938 7.589844 6.484375 8.074219 6.230469 C 8.316406 6.097656 8.542969 6.003906 8.734375 5.914062 C 8.929688 5.835938 9.097656 5.765625 9.234375 5.714844 C 9.511719 5.621094 9.660156 5.574219 9.660156 5.574219 C 9.660156 5.574219 9.515625 5.625 9.238281 5.726562 C 9.105469 5.78125 8.9375 5.851562 8.742188 5.9375 C 8.554688 6.03125 8.332031 6.128906 8.09375 6.265625 C 7.617188 6.527344 7.058594 6.890625 6.480469 7.386719 C 6.40625 7.449219 6.335938 7.515625 6.265625 7.582031 C 6.191406 7.648438 6.117188 7.714844 6.046875 7.785156 C 5.972656 7.855469 5.902344 7.929688 5.828125 8.003906 C 5.792969 8.039062 5.757812 8.078125 5.71875 8.117188 C 5.683594 8.15625 5.648438 8.195312 5.613281 8.234375 C 5.324219 8.550781 5.050781 8.90625 4.785156 9.292969 C 4.519531 9.679688 4.277344 10.105469 4.058594 10.5625 C 3.839844 11.015625 3.644531 11.503906 3.492188 12.019531 C 3.1875 13.050781 3.039062 14.191406 3.101562 15.359375 C 3.113281 15.507812 3.121094 15.652344 3.136719 15.800781 C 3.15625 15.945312 3.171875 16.09375 3.191406 16.238281 C 3.214844 16.386719 3.242188 16.53125 3.265625 16.679688 C 3.296875 16.824219 3.328125 16.96875 3.359375 17.113281 C 3.394531 17.261719 3.441406 17.410156 3.480469 17.558594 L 3.503906 17.640625 L 3.546875 17.769531 C 3.570312 17.84375 3.59375 17.914062 3.617188 17.988281 L 3.652344 18.09375 C 3.664062 18.128906 3.679688 18.164062 3.691406 18.203125 L 3.773438 18.414062 C 3.824219 18.558594 3.886719 18.695312 3.949219 18.835938 C 4.449219 19.949219 5.167969 20.976562 6.050781 21.824219 C 6.9375 22.671875 7.984375 23.339844 9.09375 23.777344 C 10.203125 24.21875 11.371094 24.433594 12.5 24.429688 C 13.0625 24.433594 13.617188 24.375 14.152344 24.273438 C 14.285156 24.253906 14.414062 24.222656 14.542969 24.191406 C 14.605469 24.179688 14.671875 24.164062 14.734375 24.148438 C 14.800781 24.128906 14.867188 24.113281 14.933594 24.09375 C 15 24.074219 15.066406 24.054688 15.128906 24.039062 L 15.179688 24.023438 L 15.203125 24.015625 C 15.203125 24.015625 15.222656 24.011719 15.207031 24.015625 L 15.3125 23.980469 C 15.4375 23.9375 15.558594 23.894531 15.679688 23.851562 C 15.804688 23.8125 15.921875 23.753906 16.039062 23.707031 C 16.15625 23.65625 16.273438 23.609375 16.386719 23.558594 C 16.496094 23.5 16.609375 23.445312 16.71875 23.390625 C 16.773438 23.359375 16.828125 23.332031 16.882812 23.304688 C 16.9375 23.277344 16.988281 23.246094 17.042969 23.214844 C 17.148438 23.152344 17.25 23.089844 17.351562 23.03125 C 17.40625 23 17.453125 22.964844 17.503906 22.933594 C 17.550781 22.898438 17.601562 22.867188 17.648438 22.832031 C 17.746094 22.765625 17.84375 22.703125 17.933594 22.636719 C 18.027344 22.566406 18.117188 22.496094 18.203125 22.425781 C 18.910156 21.863281 19.476562 21.25 19.910156 20.65625 C 20.34375 20.066406 20.648438 19.496094 20.875 19.023438 C 20.976562 18.78125 21.082031 18.566406 21.140625 18.375 C 21.210938 18.1875 21.273438 18.035156 21.3125 17.886719 C 21.398438 17.601562 21.441406 17.449219 21.441406 17.449219 L 22.324219 17.734375 " fill-opacity="1" fill-rule="nonzero"/></g><path fill="#03658c" d="M 15.359375 23.285156 C 15.359375 23.285156 15.226562 23.316406 14.984375 23.378906 C 14.871094 23.414062 14.699219 23.441406 14.507812 23.480469 C 14.3125 23.523438 14.09375 23.542969 13.851562 23.578125 C 13.359375 23.625 12.761719 23.648438 12.078125 23.578125 C 11.398438 23.507812 10.636719 23.347656 9.851562 23.039062 C 9.753906 23 9.65625 22.960938 9.554688 22.917969 C 9.457031 22.878906 9.359375 22.828125 9.261719 22.78125 C 9.210938 22.757812 9.160156 22.734375 9.113281 22.710938 C 9.0625 22.6875 9.011719 22.664062 8.964844 22.636719 C 8.867188 22.582031 8.769531 22.527344 8.667969 22.46875 C 8.621094 22.441406 8.570312 22.414062 8.519531 22.386719 C 8.472656 22.355469 8.425781 22.324219 8.375 22.292969 C 8.277344 22.230469 8.183594 22.164062 8.082031 22.101562 C 7.988281 22.035156 7.894531 21.960938 7.796875 21.890625 C 7.703125 21.820312 7.605469 21.75 7.515625 21.671875 C 7.421875 21.589844 7.332031 21.511719 7.238281 21.433594 L 7.167969 21.375 L 7.097656 21.304688 C 7.054688 21.265625 7.011719 21.222656 6.96875 21.183594 C 6.925781 21.140625 6.882812 21.101562 6.839844 21.058594 C 6.796875 21.011719 6.753906 20.964844 6.710938 20.917969 C 6.621094 20.824219 6.53125 20.734375 6.453125 20.636719 C 6.117188 20.253906 5.8125 19.832031 5.542969 19.378906 C 5.003906 18.472656 4.617188 17.433594 4.433594 16.339844 C 4.246094 15.25 4.269531 14.109375 4.5 13.015625 C 4.734375 11.921875 5.179688 10.878906 5.789062 9.972656 C 5.867188 9.863281 5.941406 9.75 6.023438 9.640625 C 6.105469 9.535156 6.183594 9.421875 6.273438 9.324219 L 6.402344 9.167969 L 6.46875 9.089844 L 6.488281 9.070312 L 6.503906 9.050781 L 6.535156 9.015625 C 6.625 8.917969 6.710938 8.824219 6.804688 8.726562 C 6.902344 8.632812 6.996094 8.542969 7.09375 8.449219 C 7.191406 8.363281 7.289062 8.273438 7.386719 8.1875 C 7.488281 8.105469 7.589844 8.027344 7.691406 7.945312 C 7.796875 7.863281 7.902344 7.792969 8.003906 7.71875 C 8.847656 7.128906 9.765625 6.726562 10.667969 6.492188 C 11.117188 6.375 11.566406 6.304688 12 6.265625 C 12.4375 6.226562 12.859375 6.21875 13.261719 6.246094 C 13.667969 6.277344 14.050781 6.324219 14.414062 6.402344 C 14.457031 6.410156 14.503906 6.421875 14.546875 6.429688 C 14.589844 6.441406 14.632812 6.453125 14.679688 6.460938 C 14.765625 6.484375 14.851562 6.507812 14.933594 6.527344 C 15.019531 6.550781 15.101562 6.578125 15.183594 6.601562 C 15.261719 6.625 15.34375 6.648438 15.417969 6.679688 C 16.039062 6.894531 16.554688 7.15625 16.957031 7.394531 C 17.160156 7.515625 17.332031 7.636719 17.484375 7.738281 C 17.632812 7.847656 17.757812 7.941406 17.855469 8.019531 C 18.050781 8.179688 18.15625 8.265625 18.15625 8.265625 C 18.15625 8.265625 18.050781 8.183594 17.851562 8.027344 C 17.75 7.949219 17.621094 7.863281 17.472656 7.757812 C 17.316406 7.660156 17.144531 7.542969 16.9375 7.429688 C 16.53125 7.203125 16.011719 6.957031 15.394531 6.761719 C 15.316406 6.734375 15.238281 6.714844 15.15625 6.691406 C 15.074219 6.667969 14.992188 6.648438 14.910156 6.625 C 14.828125 6.605469 14.742188 6.585938 14.65625 6.566406 C 14.613281 6.558594 14.570312 6.546875 14.523438 6.539062 C 14.480469 6.53125 14.4375 6.523438 14.390625 6.515625 C 14.035156 6.449219 13.652344 6.410156 13.257812 6.394531 C 12.859375 6.375 12.445312 6.394531 12.019531 6.445312 C 11.59375 6.496094 11.160156 6.578125 10.722656 6.703125 C 9.851562 6.957031 8.972656 7.371094 8.171875 7.960938 C 8.074219 8.035156 7.972656 8.109375 7.878906 8.1875 C 7.78125 8.269531 7.6875 8.351562 7.589844 8.429688 C 7.5 8.515625 7.40625 8.601562 7.3125 8.6875 C 7.226562 8.777344 7.136719 8.871094 7.050781 8.960938 C 6.960938 9.054688 6.875 9.15625 6.789062 9.25 L 6.742188 9.308594 C 6.742188 9.304688 6.738281 9.3125 6.734375 9.3125 L 6.730469 9.324219 L 6.667969 9.398438 L 6.546875 9.550781 C 6.464844 9.648438 6.394531 9.757812 6.316406 9.863281 C 6.242188 9.964844 6.171875 10.078125 6.101562 10.1875 C 5.542969 11.066406 5.144531 12.066406 4.953125 13.109375 C 4.761719 14.148438 4.769531 15.222656 4.972656 16.238281 C 5.167969 17.257812 5.558594 18.214844 6.078125 19.039062 C 6.339844 19.453125 6.632812 19.832031 6.949219 20.175781 C 7.027344 20.265625 7.109375 20.34375 7.1875 20.425781 C 7.226562 20.464844 7.265625 20.503906 7.304688 20.546875 C 7.351562 20.585938 7.394531 20.625 7.4375 20.664062 C 7.480469 20.707031 7.523438 20.746094 7.570312 20.785156 L 7.601562 20.816406 L 7.617188 20.828125 C 7.617188 20.828125 7.628906 20.839844 7.621094 20.832031 L 7.628906 20.839844 L 7.695312 20.890625 C 7.78125 20.960938 7.867188 21.03125 7.953125 21.101562 C 8.039062 21.175781 8.128906 21.234375 8.21875 21.296875 C 8.308594 21.359375 8.394531 21.425781 8.484375 21.484375 C 8.578125 21.539062 8.667969 21.59375 8.757812 21.648438 C 8.800781 21.675781 8.847656 21.707031 8.890625 21.734375 C 8.9375 21.757812 8.984375 21.78125 9.03125 21.804688 C 9.121094 21.855469 9.210938 21.902344 9.300781 21.949219 C 9.347656 21.972656 9.394531 21.992188 9.4375 22.015625 C 9.484375 22.035156 9.53125 22.054688 9.578125 22.074219 C 9.667969 22.113281 9.757812 22.160156 9.847656 22.195312 C 9.941406 22.226562 10.03125 22.261719 10.121094 22.292969 C 10.839844 22.554688 11.535156 22.683594 12.152344 22.726562 C 12.769531 22.773438 13.308594 22.734375 13.75 22.683594 C 13.96875 22.648438 14.167969 22.625 14.328125 22.582031 C 14.492188 22.542969 14.625 22.523438 14.75 22.480469 C 14.992188 22.414062 15.121094 22.375 15.121094 22.375 L 15.359375 23.285156 " fill-opacity="1" fill-rule="nonzero"/><path fill="#0bb3d9" d="M 8.339844 19.828125 C 8.339844 19.828125 8.292969 19.785156 8.210938 19.699219 C 8.171875 19.65625 8.121094 19.605469 8.058594 19.542969 C 8.046875 19.527344 8.03125 19.511719 8.011719 19.492188 C 7.996094 19.472656 7.980469 19.453125 7.960938 19.433594 C 7.925781 19.390625 7.886719 19.347656 7.847656 19.300781 C 7.808594 19.257812 7.765625 19.207031 7.726562 19.15625 C 7.683594 19.105469 7.644531 19.050781 7.601562 18.996094 C 7.558594 18.9375 7.515625 18.878906 7.46875 18.820312 C 7.425781 18.757812 7.378906 18.6875 7.335938 18.621094 C 7.289062 18.554688 7.242188 18.484375 7.195312 18.410156 C 7.152344 18.335938 7.105469 18.257812 7.0625 18.179688 C 7.039062 18.140625 7.015625 18.097656 6.992188 18.058594 C 6.96875 18.019531 6.949219 17.972656 6.925781 17.929688 C 6.882812 17.84375 6.839844 17.757812 6.792969 17.667969 C 6.75 17.578125 6.710938 17.480469 6.671875 17.386719 C 6.648438 17.335938 6.628906 17.289062 6.609375 17.242188 C 6.585938 17.191406 6.570312 17.140625 6.550781 17.089844 C 6.515625 16.988281 6.476562 16.882812 6.441406 16.777344 C 6.410156 16.671875 6.378906 16.5625 6.347656 16.453125 C 6.230469 16.007812 6.140625 15.53125 6.109375 15.03125 C 6.078125 14.53125 6.097656 14.015625 6.167969 13.5 C 6.1875 13.371094 6.210938 13.238281 6.230469 13.109375 L 6.273438 12.925781 C 6.285156 12.863281 6.300781 12.800781 6.316406 12.734375 L 6.371094 12.542969 C 6.386719 12.476562 6.40625 12.414062 6.425781 12.351562 C 6.464844 12.226562 6.507812 12.101562 6.554688 11.980469 C 6.734375 11.488281 6.976562 11.019531 7.25 10.589844 C 7.53125 10.160156 7.851562 9.769531 8.191406 9.429688 C 8.535156 9.089844 8.898438 8.796875 9.265625 8.554688 C 9.628906 8.3125 10 8.121094 10.347656 7.972656 C 10.695312 7.824219 11.027344 7.714844 11.324219 7.640625 C 11.398438 7.617188 11.472656 7.605469 11.539062 7.585938 C 11.574219 7.578125 11.609375 7.570312 11.644531 7.5625 C 11.675781 7.558594 11.710938 7.550781 11.742188 7.546875 C 11.808594 7.535156 11.871094 7.523438 11.929688 7.511719 C 11.992188 7.503906 12.046875 7.496094 12.101562 7.488281 C 12.210938 7.472656 12.308594 7.464844 12.394531 7.457031 C 12.433594 7.453125 12.472656 7.449219 12.511719 7.445312 C 12.546875 7.445312 12.578125 7.441406 12.609375 7.441406 C 12.726562 7.433594 12.789062 7.429688 12.789062 7.429688 C 12.789062 7.429688 12.726562 7.4375 12.609375 7.449219 C 12.578125 7.453125 12.546875 7.457031 12.511719 7.460938 C 12.476562 7.464844 12.4375 7.472656 12.394531 7.480469 C 12.3125 7.492188 12.214844 7.503906 12.109375 7.527344 C 12.054688 7.539062 12 7.550781 11.941406 7.5625 C 11.882812 7.574219 11.820312 7.589844 11.757812 7.605469 C 11.722656 7.613281 11.691406 7.621094 11.660156 7.628906 C 11.625 7.640625 11.59375 7.648438 11.558594 7.660156 C 11.492188 7.679688 11.417969 7.699219 11.347656 7.722656 C 11.058594 7.8125 10.738281 7.941406 10.40625 8.105469 C 10.074219 8.273438 9.726562 8.480469 9.386719 8.734375 C 9.046875 8.988281 8.710938 9.292969 8.402344 9.636719 C 8.09375 9.980469 7.8125 10.371094 7.570312 10.789062 C 7.332031 11.210938 7.132812 11.664062 6.988281 12.132812 C 6.953125 12.25 6.917969 12.367188 6.890625 12.488281 C 6.875 12.546875 6.859375 12.605469 6.847656 12.664062 L 6.8125 12.84375 C 6.800781 12.898438 6.789062 12.960938 6.78125 13.023438 L 6.75 13.210938 C 6.738281 13.328125 6.722656 13.449219 6.710938 13.566406 C 6.671875 14.046875 6.683594 14.519531 6.738281 14.96875 C 6.792969 15.421875 6.898438 15.847656 7.027344 16.242188 C 7.0625 16.339844 7.09375 16.433594 7.128906 16.527344 C 7.167969 16.621094 7.203125 16.710938 7.242188 16.800781 C 7.261719 16.847656 7.277344 16.890625 7.300781 16.933594 C 7.320312 16.976562 7.34375 17.019531 7.363281 17.058594 C 7.40625 17.144531 7.441406 17.226562 7.488281 17.304688 C 7.53125 17.382812 7.574219 17.457031 7.617188 17.53125 C 7.640625 17.570312 7.660156 17.605469 7.683594 17.640625 C 7.707031 17.675781 7.726562 17.710938 7.75 17.746094 C 7.796875 17.8125 7.839844 17.878906 7.882812 17.941406 C 7.925781 18.007812 7.972656 18.066406 8.015625 18.121094 C 8.058594 18.179688 8.101562 18.238281 8.140625 18.289062 C 8.1875 18.339844 8.226562 18.390625 8.269531 18.4375 C 8.308594 18.484375 8.347656 18.53125 8.386719 18.574219 C 8.421875 18.613281 8.460938 18.652344 8.496094 18.6875 C 8.527344 18.722656 8.5625 18.757812 8.59375 18.789062 C 8.609375 18.804688 8.621094 18.820312 8.636719 18.835938 C 8.652344 18.851562 8.664062 18.863281 8.683594 18.878906 C 8.746094 18.9375 8.796875 18.988281 8.84375 19.027344 C 8.929688 19.105469 8.976562 19.148438 8.976562 19.148438 L 8.339844 19.828125 " fill-opacity="1" fill-rule="nonzero"/><g clip-path="url(#7aa7a1f08b)"><g clip-path="url(#66c2189ffa)"><g clip-path="url(#ec985ac989)"><path fill="#0bb3d9" d="M 18.257812 7.113281 L 18.039062 7.359375 L 18.320312 7.183594 L 18.378906 8.128906 L 18.589844 7.203125 L 18.839844 7.421875 L 18.660156 7.144531 L 19.609375 7.078125 L 18.683594 6.875 L 18.902344 6.628906 L 18.621094 6.804688 L 18.554688 5.859375 L 18.351562 6.78125 L 18.101562 6.566406 L 18.277344 6.84375 L 17.324219 6.902344 Z M 18.257812 7.113281 " fill-opacity="1" fill-rule="nonzero"/></g></g></g><g clip-path="url(#bb2d8307af)"><g clip-path="url(#b6fae7d98c)"><g clip-path="url(#06f492638d)"><path fill="#0bb3d9" d="M 16.769531 9.671875 L 16.550781 9.921875 L 16.828125 9.746094 L 16.890625 10.691406 L 17.097656 9.765625 L 17.34375 9.984375 L 17.167969 9.703125 L 18.121094 9.644531 L 17.1875 9.4375 L 17.40625 9.191406 L 17.128906 9.367188 L 17.066406 8.417969 L 16.859375 9.34375 L 16.613281 9.128906 L 16.789062 9.40625 L 15.832031 9.464844 Z M 16.769531 9.671875 " fill-opacity="1" fill-rule="nonzero"/></g></g></g><g clip-path="url(#fa67410406)"><g clip-path="url(#2193d22231)"><g clip-path="url(#6eaac7ab9c)"><path fill="#0bb3d9" d="M 20.976562 6.582031 L 20.800781 6.78125 L 21.023438 6.640625 L 21.078125 7.394531 L 21.242188 6.65625 L 21.4375 6.828125 L 21.296875 6.609375 L 22.054688 6.558594 L 21.3125 6.398438 L 21.488281 6.195312 L 21.265625 6.339844 L 21.214844 5.585938 L 21.046875 6.324219 L 20.851562 6.148438 L 20.992188 6.371094 L 20.234375 6.417969 Z M 20.976562 6.582031 " fill-opacity="1" fill-rule="nonzero"/></g></g></g><g clip-path="url(#6ab7c1b549)"><g clip-path="url(#2a12da5988)"><g clip-path="url(#a4e0b3a809)"><path fill="#0bb3d9" d="M 24.683594 9.691406 L 23.941406 9.527344 L 24.117188 9.328125 L 23.890625 9.46875 L 23.839844 8.714844 L 23.675781 9.453125 L 23.480469 9.277344 L 23.621094 9.503906 L 22.859375 9.550781 L 23.601562 9.714844 L 23.429688 9.914062 L 23.652344 9.773438 L 23.703125 10.527344 L 23.867188 9.789062 L 24.066406 9.964844 L 23.925781 9.738281 Z M 24.683594 9.691406 " fill-opacity="1" fill-rule="nonzero"/></g></g></g><g clip-path="url(#c90e491c2e)"><g clip-path="url(#2360446359)"><g clip-path="url(#522eacae07)"><path fill="#0bb3d9" d="M 22.308594 12.601562 L 22.640625 12.226562 L 22.214844 12.492188 L 22.117188 11.054688 L 21.804688 12.460938 L 21.425781 12.132812 L 21.695312 12.554688 L 20.25 12.648438 L 21.664062 12.960938 L 21.332031 13.335938 L 21.757812 13.070312 L 21.851562 14.507812 L 22.167969 13.101562 L 22.546875 13.429688 L 22.277344 13.007812 L 23.722656 12.914062 Z M 22.308594 12.601562 " fill-opacity="1" fill-rule="nonzero"/></g></g></g><g clip-path="url(#3731ef0068)"><g clip-path="url(#8736f9769e)"><g clip-path="url(#6485009ac8)"><path fill="#0bb3d9" d="M 8.273438 19.628906 C 8.398438 19.898438 8.59375 20.128906 8.84375 20.289062 L 8.847656 20.292969 L 17.910156 12.585938 L 17.339844 11.925781 Z M 8.273438 19.628906 " fill-opacity="1" fill-rule="nonzero"/></g></g></g><g clip-path="url(#a7f89c8391)"><g clip-path="url(#82b788d52a)"><g clip-path="url(#64df85d25a)"><path fill="#0bb3d9" d="M 21.238281 8.605469 L 17.613281 11.691406 L 18.183594 12.351562 L 21.8125 9.265625 C 21.6875 8.996094 21.488281 8.769531 21.238281 8.605469 Z M 21.238281 8.605469 " fill-opacity="1" fill-rule="nonzero"/></g></g></g><g fill="#0bb3d9" fill-opacity="1"><g transform="translate(27.029222, 18.082953)"><g><path d="M 0.636719 0 L 1.585938 0 L 1.585938 -7.863281 L 0.636719 -7.863281 Z M 0.636719 -7.988281 L 5.460938 -7.988281 L 5.460938 -8.890625 L 0.636719 -8.890625 Z M 1.714844 -4.242188 L 5.460938 -4.242188 L 5.460938 -5.144531 L 1.714844 -5.144531 Z M 5.589844 -4.242188 L 6.542969 -5.132812 L 6.542969 -7.988281 L 5.589844 -8.890625 Z M 5.589844 -4.242188 "/></g></g></g><g fill="#0bb3d9" fill-opacity="1"><g transform="translate(34.332616, 18.082953)"><g><path d="M 1.714844 -6.351562 L 0.761719 -6.351562 L 0.761719 0 L 1.714844 0 Z M 1.714844 -8.890625 L 0.761719 -8.890625 L 0.761719 -7.621094 L 1.714844 -7.621094 Z M 1.714844 -8.890625 "/></g></g></g><g fill="#0bb3d9" fill-opacity="1"><g transform="translate(36.936431, 18.082953)"><g><path d="M 1.753906 0 L 6.65625 -6.351562 L 5.550781 -6.351562 L 0.636719 0 Z M 3.570312 -3.988281 L 1.738281 -6.351562 L 0.636719 -6.351562 L 2.996094 -3.277344 Z M 3.722656 -2.335938 L 5.539062 0 L 6.65625 0 L 4.28125 -3.0625 Z M 3.722656 -2.335938 "/></g></g></g><g fill="#0bb3d9" fill-opacity="1"><g transform="translate(44.227122, 18.082953)"><g><path d="M 1.714844 -6.351562 L 0.761719 -6.351562 L 0.761719 0 L 1.714844 0 Z M 1.714844 -8.890625 L 0.761719 -8.890625 L 0.761719 -7.621094 L 1.714844 -7.621094 Z M 1.714844 -8.890625 "/></g></g></g><g fill="#072a40" fill-opacity="1"><g transform="translate(46.830129, 18.082953)"><g><path d="M 0.636719 0 L 1.585938 0 L 1.585938 -7.863281 L 0.636719 -7.863281 Z M 0.636719 -7.988281 L 5.460938 -7.988281 L 5.460938 -8.890625 L 0.636719 -8.890625 Z M 1.714844 -4.242188 L 5.460938 -4.242188 L 5.460938 -5.144531 L 1.714844 -5.144531 Z M 5.589844 -4.242188 L 6.542969 -5.132812 L 6.542969 -7.988281 L 5.589844 -8.890625 Z M 5.589844 -4.242188 "/></g></g></g><g fill="#072a40" fill-opacity="1"><g transform="translate(54.133523, 18.082953)"><g><path d="M 0.636719 -5.449219 L 4.878906 -5.449219 L 4.878906 -6.351562 L 0.636719 -6.351562 Z M 0.636719 -6.476562 L 1.585938 -6.476562 L 1.585938 -9.527344 L 0.636719 -9.527344 Z M 5.003906 0 L 5.957031 0 L 5.957031 -5.449219 L 5.003906 -6.351562 Z M 1.585938 -5.320312 L 0.636719 -5.320312 L 0.636719 0 L 1.585938 0 Z M 1.585938 -5.320312 "/></g></g></g><g fill="#072a40" fill-opacity="1"><g transform="translate(60.72563, 18.082953)"><g><path d="M 1.460938 -6.351562 L 0.507812 -6.351562 L 0.507812 0 L 1.460938 0 Z M 1.585938 -5.449219 L 4.75 -5.449219 L 4.75 -6.351562 L 2.539062 -6.351562 Z M 1.585938 -5.449219 "/></g></g></g><g fill="#072a40" fill-opacity="1"><g transform="translate(65.984072, 18.082953)"><g><path d="M 0.636719 -5.449219 L 4.863281 -5.449219 L 4.863281 -6.351562 L 1.585938 -6.351562 Z M 5.945312 -0.902344 L 1.714844 -0.902344 L 1.714844 0 L 4.964844 0 Z M 4.992188 -1.027344 L 5.945312 -1.027344 L 5.945312 -5.398438 L 4.992188 -6.351562 Z M 1.585938 -3.035156 L 0.636719 -3.035156 L 0.636719 -0.953125 L 1.585938 0 Z M 0.636719 -3.164062 L 4.863281 -3.164062 L 4.863281 -4.066406 L 1.585938 -4.066406 Z M 0.636719 -3.164062 "/></g></g></g><g fill="#072a40" fill-opacity="1"><g transform="translate(72.931828, 18.082953)"><g><path d="M 5.234375 -6.351562 L 1.714844 -6.351562 L 1.714844 -5.449219 L 5.234375 -5.449219 Z M 1.585938 -6.351562 L 0.636719 -5.449219 L 0.636719 -3.808594 L 1.585938 -3.417969 Z M 0.890625 0 L 4.40625 0 L 4.40625 -0.902344 L 0.890625 -0.902344 Z M 4.535156 0 L 5.488281 -0.902344 L 5.488281 -1.636719 L 4.535156 -2.046875 Z M 5.488281 -2.730469 L 1.714844 -4.355469 L 1.714844 -3.390625 L 5.488281 -1.765625 Z M 5.488281 -2.730469 "/></g></g></g><g fill="#072a40" fill-opacity="1"><g transform="translate(79.053982, 18.082953)"><g><path d="M 5.945312 -0.902344 L 1.714844 -0.902344 L 1.714844 0 L 4.964844 0 Z M 0.636719 -5.449219 L 4.863281 -5.449219 L 4.863281 -6.351562 L 1.585938 -6.351562 Z M 1.585938 -5.320312 L 0.636719 -5.320312 L 0.636719 -0.953125 L 1.585938 0 Z M 4.992188 -3.554688 L 5.945312 -3.554688 L 5.945312 -5.398438 L 4.992188 -6.351562 Z M 5.945312 -3.429688 L 1.714844 -3.429688 L 1.714844 -2.527344 L 4.964844 -2.527344 Z M 5.945312 -3.429688 "/></g></g></g></svg>